<svg width="1440" height="900" viewBox="0 0 1440 900" fill="none" xmlns="http://www.w3.org/2000/svg" preserveAspectRatio="xMidYMid slice">
  <path d="M0 300C200 280 400 350 600 320C800 290 1000 380 1200 340C1400 300 1440 350 1440 350V900H0V300Z" fill="#ebe6dd" fill-opacity="0.5"/>
  <path d="M0 450C240 420 480 500 720 460C960 420 1200 520 1440 480V900H0V450Z" fill="#98b3cc" fill-opacity="0.12"/>
  <path d="M0 600C180 570 360 640 540 610C720 580 900 660 1080 630C1260 600 1440 650 1440 650V900H0V600Z" fill="#a3b3a3" fill-opacity="0.1"/>
</svg>
